<?xml version="1.0" encoding="UTF-8" standalone="no"?>
<!-- Created with Inkscape (http://www.inkscape.org/) -->

<svg
   version="1.1"
   id="svg2"
   width="2829.3333"
   height="2829.3333"
   viewBox="0 0 2829.3333 2829.3333"
   sodipodi:docname="1037_U1RVRElPIEtBVCAwOTYtMTAy.eps"
   xmlns:inkscape="http://www.inkscape.org/namespaces/inkscape"
   xmlns:sodipodi="http://sodipodi.sourceforge.net/DTD/sodipodi-0.dtd"
   xmlns="http://www.w3.org/2000/svg"
   xmlns:svg="http://www.w3.org/2000/svg">
  <defs
     id="defs6" />
  <sodipodi:namedview
     id="namedview4"
     pagecolor="#ffffff"
     bordercolor="#000000"
     borderopacity="0.25"
     inkscape:showpageshadow="2"
     inkscape:pageopacity="0.0"
     inkscape:pagecheckerboard="0"
     inkscape:deskcolor="#d1d1d1" />
  <g
     id="g8"
     inkscape:groupmode="layer"
     inkscape:label="ink_ext_XXXXXX"
     transform="matrix(1.3333333,0,0,-1.3333333,0,2829.3333)">
    <g
       id="g10"
       transform="scale(0.1)">
      <path
         d="m 8630.98,14797.3 c 0,-697.4 2561.32,-696.7 3715.62,-696.7 1154.4,0 3663.2,-0.7 3663.2,696.7 0,697.4 -1186,1954.6 -3021.7,2504.9 -4074.62,1221.4 -7126.15,-785 -7840.52,-1111.5 -280.94,-128.5 3483.4,-1160.5 3483.4,-1393.4"
         style="fill:#ef3120;fill-opacity:1;fill-rule:nonzero;stroke:none"
         id="path12" />
      <path
         d="m 8630.98,14797.3 c 0,-697.4 2561.32,-696.7 3715.62,-696.7 1154.4,0 3663.2,-0.7 3663.2,696.7 0,697.4 -1186,1954.6 -3021.7,2504.9 -4074.62,1221.4 -7126.15,-785 -7840.52,-1111.5 -280.94,-128.5 3483.4,-1160.5 3483.4,-1393.4 z"
         style="fill:none;stroke:#231f20;stroke-width:199.56;stroke-linecap:round;stroke-linejoin:round;stroke-miterlimit:10;stroke-dasharray:none;stroke-opacity:1"
         id="path14" />
      <path
         d="m 7750.23,11149.3 c -173.04,-3538.2 2070.28,-4093 4624.07,-4093 2553.7,0 4623.9,1335.4 4623.9,4093 0,2757.9 -2070.2,4092.9 -4623.9,4092.9 -2553.79,0 -4456.45,-667.5 -4624.07,-4092.9"
         style="fill:#f0efef;fill-opacity:1;fill-rule:nonzero;stroke:none"
         id="path16" />
      <path
         d="m 7750.23,11149.3 c -173.04,-3538.2 2070.28,-4093 4624.07,-4093 2553.7,0 4623.9,1335.4 4623.9,4093 0,2757.9 -2070.2,4092.9 -4623.9,4092.9 -2553.79,0 -4456.45,-667.5 -4624.07,-4092.9 z"
         style="fill:none;stroke:#231f20;stroke-width:199.56;stroke-linecap:round;stroke-linejoin:round;stroke-miterlimit:10;stroke-dasharray:none;stroke-opacity:1"
         id="path18" />
      <path
         d="m 8282.7,10704.2 c -149.97,-3538.3 1793.5,-4093 4005.9,-4093 2212.4,0 4006,1335.4 4006,4093 0,2757.7 -1793.6,4093.1 -4006,4093.1 -2212.4,0 -3860.79,-667.6 -4005.9,-4093.1"
         style="fill:#f9b092;fill-opacity:1;fill-rule:nonzero;stroke:none"
         id="path20" />
      <path
         d="m 8282.7,10704.2 c -149.97,-3538.3 1793.5,-4093 4005.9,-4093 2212.4,0 4006,1335.4 4006,4093 0,2757.7 -1793.6,4093.1 -4006,4093.1 -2212.4,0 -3860.79,-667.6 -4005.9,-4093.1 z"
         style="fill:none;stroke:#231f20;stroke-width:199.56;stroke-linecap:round;stroke-linejoin:round;stroke-miterlimit:10;stroke-dasharray:none;stroke-opacity:1"
         id="path22" />
      <path
         d="m 7068.63,10501.1 c 0,-753.6 381.64,-870.9 852.35,-870.9 470.62,0 852.34,284.1 852.34,870.9 0,586.7 -381.72,870.8 -852.34,870.8 -470.71,0 -852.35,-117.4 -852.35,-870.8"
         style="fill:#f9b092;fill-opacity:1;fill-rule:nonzero;stroke:none"
         id="path24" />
      <path
         d="m 7068.63,10501.1 c 0,-753.6 381.64,-870.9 852.35,-870.9 470.62,0 852.34,284.1 852.34,870.9 0,586.7 -381.72,870.8 -852.34,870.8 -470.71,0 -852.35,-117.4 -852.35,-870.8 z"
         style="fill:none;stroke:#231f20;stroke-width:199.56;stroke-linecap:round;stroke-linejoin:round;stroke-miterlimit:10;stroke-dasharray:none;stroke-opacity:1"
         id="path26" />
      <path
         d="m 15841.4,10501.1 c 0,-753.6 381.6,-870.9 852.3,-870.9 470.6,0 852.3,284.1 852.3,870.9 0,586.7 -381.7,870.8 -852.3,870.8 -470.7,0 -852.3,-117.4 -852.3,-870.8"
         style="fill:#f9b092;fill-opacity:1;fill-rule:nonzero;stroke:none"
         id="path28" />
      <path
         d="m 15841.4,10501.1 c 0,-753.6 381.6,-870.9 852.3,-870.9 470.6,0 852.3,284.1 852.3,870.9 0,586.7 -381.7,870.8 -852.3,870.8 -470.7,0 -852.3,-117.4 -852.3,-870.8 z"
         style="fill:none;stroke:#231f20;stroke-width:199.56;stroke-linecap:round;stroke-linejoin:round;stroke-miterlimit:10;stroke-dasharray:none;stroke-opacity:1"
         id="path30" />
      <path
         d="m 8819.65,10704.2 c -180.86,2178.3 1470.85,2380.3 3468.95,2380.3 1622.1,0 3678.1,-419.7 3541.4,-2380.3 -246.6,-1272.4 -1737.5,-788.5 -3577.7,-788.5 -1715.6,0 -3336.21,-790.9 -3432.65,788.5 z M 12288.6,3534.3 c 3644.4,0 4720.8,1645.6 4709.6,3309 -8.5,1264.9 -791.5,2344 -703.6,3860.9 0,2894.6 -1793.6,4296.2 -4006,4296.2 -2212.4,0 -3860.79,-700.7 -4005.9,-4296.2 C 8279.34,9284.4 7480.51,8264.8 7430.35,7056.4 7355.39,5250.8 8445.47,3534.3 12288.6,3534.3"
         style="fill:#f0efef;fill-opacity:1;fill-rule:nonzero;stroke:none"
         id="path32" />
      <path
         d="m 8819.65,10704.2 c -180.86,2178.3 1470.85,2380.3 3468.95,2380.3 1622.1,0 3678.1,-419.7 3541.4,-2380.3 -246.6,-1272.4 -1737.5,-788.5 -3577.7,-788.5 -1715.6,0 -3336.21,-790.9 -3432.65,788.5 z M 12288.6,3534.3 c 3644.4,0 4720.8,1645.6 4709.6,3309 -8.5,1264.9 -791.5,2344 -703.6,3860.9 0,2894.6 -1793.6,4296.2 -4006,4296.2 -2212.4,0 -3860.79,-700.7 -4005.9,-4296.2 C 8279.34,9284.4 7480.51,8264.8 7430.35,7056.4 7355.39,5250.8 8445.47,3534.3 12288.6,3534.3 Z"
         style="fill:none;stroke:#231f20;stroke-width:199.56;stroke-linecap:round;stroke-linejoin:round;stroke-miterlimit:10;stroke-dasharray:none;stroke-opacity:1"
         id="path34" />
      <path
         d="m 11516.3,8794.8 c 0,-318.7 329.5,-577.1 736,-577.1 406.4,0 735.8,258.4 735.8,577.1 0,318.5 -329.4,576.9 -735.8,576.9 -406.5,0 -736,-258.4 -736,-576.9"
         style="fill:#ef3120;fill-opacity:1;fill-rule:nonzero;stroke:none"
         id="path36" />
      <path
         d="m 11516.3,8794.8 c 0,-318.7 329.5,-577.1 736,-577.1 406.4,0 735.8,258.4 735.8,577.1 0,318.5 -329.4,576.9 -735.8,576.9 -406.5,0 -736,-258.4 -736,-576.9 z"
         style="fill:none;stroke:#231f20;stroke-width:199.56;stroke-linecap:round;stroke-linejoin:round;stroke-miterlimit:10;stroke-dasharray:none;stroke-opacity:1"
         id="path38" />
      <path
         d="m 9154.69,8711.2 c 0,0 391.83,174.2 928.91,29 469.3,-126.8 1045.1,-397.5 1567.6,-244.3 783.8,229.7 667.6,984.5 667.6,984.5 0,0 -493.5,554 -1335.3,551.6 -1411.51,-4.2 -1828.81,-1320.8 -1828.81,-1320.8"
         style="fill:#ffffff;fill-opacity:1;fill-rule:nonzero;stroke:none"
         id="path40" />
      <path
         d="m 9154.69,8711.2 c 0,0 391.83,174.2 928.91,29 469.3,-126.8 1045.1,-397.5 1567.6,-244.3 783.8,229.7 667.6,984.5 667.6,984.5 0,0 -493.5,554 -1335.3,551.6 -1411.51,-4.2 -1828.81,-1320.8 -1828.81,-1320.8 z"
         style="fill:none;stroke:#231f20;stroke-width:199.56;stroke-linecap:round;stroke-linejoin:round;stroke-miterlimit:10;stroke-dasharray:none;stroke-opacity:1"
         id="path42" />
      <path
         d="m 15422.4,8711.2 c 0,0 -391.9,174.2 -928.9,29 -469.2,-126.8 -1044.9,-397.5 -1567.6,-244.3 -783.6,229.7 -667.6,984.5 -667.6,984.5 0,0 493.5,554 1335.3,551.6 1411.6,-4.2 1828.8,-1320.8 1828.8,-1320.8"
         style="fill:#ffffff;fill-opacity:1;fill-rule:nonzero;stroke:none"
         id="path44" />
      <path
         d="m 15422.4,8711.2 c 0,0 -391.9,174.2 -928.9,29 -469.2,-126.8 -1044.9,-397.5 -1567.6,-244.3 -783.6,229.7 -667.6,984.5 -667.6,984.5 0,0 493.5,554 1335.3,551.6 1411.6,-4.2 1828.8,-1320.8 1828.8,-1320.8 z"
         style="fill:none;stroke:#231f20;stroke-width:199.56;stroke-linecap:round;stroke-linejoin:round;stroke-miterlimit:10;stroke-dasharray:none;stroke-opacity:1"
         id="path46" />
      <path
         d="m 11260,10075.2 c 0,-379.2 444.3,-686.8 992.3,-686.8 547.9,0 992.3,307.6 992.3,686.8 0,379.5 -444.4,687.2 -992.3,687.2 -548,0 -992.3,-307.7 -992.3,-687.2"
         style="fill:#f57f6d;fill-opacity:1;fill-rule:nonzero;stroke:none"
         id="path48" />
      <path
         d="m 11260,10075.2 c 0,-379.2 444.3,-686.8 992.3,-686.8 547.9,0 992.3,307.6 992.3,686.8 0,379.5 -444.4,687.2 -992.3,687.2 -548,0 -992.3,-307.7 -992.3,-687.2 z"
         style="fill:none;stroke:#231f20;stroke-width:199.56;stroke-linecap:round;stroke-linejoin:round;stroke-miterlimit:10;stroke-dasharray:none;stroke-opacity:1"
         id="path50" />
      <path
         d="m 10140.5,10987.3 c 0,-212.4 172.2,-384.7 384.7,-384.7 212.3,0 384.6,172.3 384.6,384.7 0,212.3 -172.3,384.6 -384.6,384.6 -212.5,0 -384.7,-172.3 -384.7,-384.6"
         style="fill:#250e0f;fill-opacity:1;fill-rule:nonzero;stroke:none"
         id="path52" />
      <path
         d="m 10140.5,10987.3 c 0,-212.4 172.2,-384.7 384.7,-384.7 212.3,0 384.6,172.3 384.6,384.7 0,212.3 -172.3,384.6 -384.6,384.6 -212.5,0 -384.7,-172.3 -384.7,-384.6 z"
         style="fill:none;stroke:#231f20;stroke-width:199.56;stroke-linecap:round;stroke-linejoin:round;stroke-miterlimit:10;stroke-dasharray:none;stroke-opacity:1"
         id="path54" />
      <path
         d="m 10256.6,11149.3 c 0,-64 52,-116 116.1,-116 64.1,0 116.1,52 116.1,116 0,64.3 -52,116.2 -116.1,116.2 -64.1,0 -116.1,-51.9 -116.1,-116.2"
         style="fill:#ffffff;fill-opacity:1;fill-rule:nonzero;stroke:none"
         id="path56" />
      <path
         d="m 13498.1,10987.3 c 0,-212.4 172.2,-384.7 384.6,-384.7 212.5,0 384.6,172.3 384.6,384.7 0,212.3 -172.1,384.6 -384.6,384.6 -212.4,0 -384.6,-172.3 -384.6,-384.6"
         style="fill:#250e0f;fill-opacity:1;fill-rule:nonzero;stroke:none"
         id="path58" />
      <path
         d="m 13498.1,10987.3 c 0,-212.4 172.2,-384.7 384.6,-384.7 212.5,0 384.6,172.3 384.6,384.7 0,212.3 -172.1,384.6 -384.6,384.6 -212.4,0 -384.6,-172.3 -384.6,-384.6 z"
         style="fill:none;stroke:#231f20;stroke-width:199.56;stroke-linecap:round;stroke-linejoin:round;stroke-miterlimit:10;stroke-dasharray:none;stroke-opacity:1"
         id="path60" />
      <path
         d="m 13614.1,11149.3 c 0,-64 52,-116 116.2,-116 64.1,0 116.1,52 116.1,116 0,64.3 -52,116.2 -116.1,116.2 -64.2,0 -116.2,-51.9 -116.2,-116.2"
         style="fill:#ffffff;fill-opacity:1;fill-rule:nonzero;stroke:none"
         id="path62" />
      <path
         d="m 9549.96,11749.3 c 203.24,-116.2 878.14,304.8 1613.04,203.2 354.6,-48.9 205.4,615.5 0,682.2 -626.1,203.2 -1293.82,59.5 -1619.45,-365.8 -268.32,-350.5 -196.79,-403.5 6.41,-519.6"
         style="fill:#f0efef;fill-opacity:1;fill-rule:nonzero;stroke:none"
         id="path64" />
      <path
         d="m 9549.96,11749.3 c 203.24,-116.2 878.14,304.8 1613.04,203.2 354.6,-48.9 205.4,615.5 0,682.2 -626.1,203.2 -1293.82,59.5 -1619.45,-365.8 -268.32,-350.5 -196.79,-403.5 6.41,-519.6 z"
         style="fill:none;stroke:#231f20;stroke-width:199.56;stroke-linecap:round;stroke-linejoin:round;stroke-miterlimit:10;stroke-dasharray:none;stroke-opacity:1"
         id="path66" />
      <path
         d="m 14814.8,11749.3 c -203.1,-116.2 -878.1,304.8 -1613,203.2 -354.6,-48.9 -205.3,615.5 0,682.2 626.1,203.2 1293.7,59.5 1619.5,-365.8 268.3,-350.5 196.7,-403.5 -6.5,-519.6"
         style="fill:#f0efef;fill-opacity:1;fill-rule:nonzero;stroke:none"
         id="path68" />
      <path
         d="m 14814.8,11749.3 c -203.1,-116.2 -878.1,304.8 -1613,203.2 -354.6,-48.9 -205.3,615.5 0,682.2 626.1,203.2 1293.7,59.5 1619.5,-365.8 268.3,-350.5 196.7,-403.5 -6.5,-519.6 z"
         style="fill:none;stroke:#231f20;stroke-width:199.56;stroke-linecap:round;stroke-linejoin:round;stroke-miterlimit:10;stroke-dasharray:none;stroke-opacity:1"
         id="path70" />
      <path
         d="m 7883.98,12189.3 c 112.74,-202.9 2352.42,497.6 4404.62,536.4 2177.2,41.1 4365.7,-757.9 4590.5,-498.5 436.7,504.2 -147.1,2077 -584.5,2417.6 -1016.2,791.1 -6947.41,597.4 -7663.62,152.5 -436.21,-271.2 -1044.96,-2071.6 -747,-2608"
         style="fill:#ffffff;fill-opacity:1;fill-rule:nonzero;stroke:none"
         id="path72" />
      <path
         d="m 7883.98,12189.3 c 112.74,-202.9 2352.42,497.6 4404.62,536.4 2177.2,41.1 4365.7,-757.9 4590.5,-498.5 436.7,504.2 -147.1,2077 -584.5,2417.6 -1016.2,791.1 -6947.41,597.4 -7663.62,152.5 -436.21,-271.2 -1044.96,-2071.6 -747,-2608 z"
         style="fill:none;stroke:#231f20;stroke-width:199.56;stroke-linecap:round;stroke-linejoin:round;stroke-miterlimit:10;stroke-dasharray:none;stroke-opacity:1"
         id="path74" />
      <path
         d="m 3667.15,16256.9 c 0,-576.9 467.93,-1045 1045,-1045 577.15,0 1045.04,468.1 1045.04,1045 0,577.2 -467.89,1045.2 -1045.04,1045.2 -577.07,0 -1045,-468 -1045,-1045.2"
         style="fill:#ffffff;fill-opacity:1;fill-rule:nonzero;stroke:none"
         id="path76" />
      <path
         d="m 3667.15,16256.9 c 0,-576.9 467.93,-1045 1045,-1045 577.15,0 1045.04,468.1 1045.04,1045 0,577.2 -467.89,1045.2 -1045.04,1045.2 -577.07,0 -1045,-468 -1045,-1045.2 z"
         style="fill:none;stroke:#231f20;stroke-width:199.56;stroke-linecap:round;stroke-linejoin:round;stroke-miterlimit:10;stroke-dasharray:none;stroke-opacity:1"
         id="path78" />
    </g>
  </g>
</svg>
